<?xml version="1.0" encoding="UTF-8" standalone="no"?>
<svg
   xmlns:dc="http://purl.org/dc/elements/1.1/"
   xmlns:cc="http://creativecommons.org/ns#"
   xmlns:rdf="http://www.w3.org/1999/02/22-rdf-syntax-ns#"
   xmlns:svg="http://www.w3.org/2000/svg"
   xmlns="http://www.w3.org/2000/svg"
   xmlns:sodipodi="http://sodipodi.sourceforge.net/DTD/sodipodi-0.dtd"
   xmlns:inkscape="http://www.inkscape.org/namespaces/inkscape"
   version="1.1"
   id="Layer_1"
   x="0px"
   y="0px"
   viewBox="0 0 150 150"
   enable-background="new 0 0 150 150"
   xml:space="preserve"
   inkscape:version="0.91 r13725"
   sodipodi:docname="late-customization.svg"><metadata
     id="metadata3419"><rdf:RDF><cc:Work
         rdf:about=""><dc:format>image/svg+xml</dc:format><dc:type
           rdf:resource="http://purl.org/dc/dcmitype/StillImage" /><dc:title></dc:title></cc:Work></rdf:RDF></metadata><defs
     id="defs3417" /><sodipodi:namedview
     pagecolor="#ffffff"
     bordercolor="#666666"
     borderopacity="1"
     objecttolerance="10"
     gridtolerance="10"
     guidetolerance="10"
     inkscape:pageopacity="0"
     inkscape:pageshadow="2"
     inkscape:window-width="1445"
     inkscape:window-height="856"
     id="namedview3415"
     showgrid="false"
     inkscape:zoom="2.69"
     inkscape:cx="32.243438"
     inkscape:cy="65.184343"
     inkscape:window-x="0"
     inkscape:window-y="0"
     inkscape:window-maximized="0"
     inkscape:current-layer="Layer_1" /><path
     d="M 113,59.1 C 113,57.4 111.6,56 109.9,56 L 63.1,56 C 61.4,56 60,57.4 60,59.1 l 0,46.8 c 0,1.7 1.4,3.1 3.1,3.1 l 46.8,0 c 1.7,0 3.1,-1.4 3.1,-3.1 l 0,-46.8 z"
     id="path3409"
     inkscape:connector-curvature="0"
     style="fill:#8429d0;fill-opacity:1" /><path
     d="M 57,59.8 C 57,56.2 59.4,53 63,53 l 29,0 0,-9.1 C 92,41.3 89.6,39 87,39 L 40.6,39 C 38,39 36,41.3 36,43.9 l 0,46.4 c 0,2.6 2,4.8 4.6,4.8 l 16.4,0 0,-35.3 z"
     id="path3411"
     inkscape:connector-curvature="0"
     style="fill:#8429d0;fill-opacity:1" /><path
     style="fill:#3b3ba0;fill-opacity:1"
     inkscape:connector-curvature="0"
     id="path3413"
     d="M 75,150 C 33.6,150 0,116.4 0,75 0,33.6 33.6,0 75,0 c 41.4,0 75,33.6 75,75 0,41.4 -33.6,75 -75,75 z M 75,6.4 C 37.2,6.4 6.4,37.2 6.4,75 c 0,37.8 30.8,68.6 68.6,68.6 37.8,0 68.6,-30.8 68.6,-68.6 C 143.6,37.2 112.8,6.4 75,6.4 Z" /></svg>